<svg id="Ñëîé_1" data-name="Ñëîé 1" xmlns="http://www.w3.org/2000/svg" xmlns:xlink="http://www.w3.org/1999/xlink" viewBox="0 0 502.88 266.57"><defs><style>.cls-1{fill:#ffd247;}.cls-2{fill:#fff;}.cls-3{fill:#b0d9c8;}.cls-4{fill:#63c1c5;}.cls-5{fill:#043c5e;}.cls-6{fill:#f7a605;}.cls-7{fill:#ffdb71;}.cls-8{fill:#f18813;}.cls-9{fill:#01898c;}.cls-10{fill:#f8b68f;}.cls-11{fill:#f4a086;}.cls-12{fill:url(#Áåçûìÿííûé_ãðàäèåíò_3);}.cls-13{fill:url(#Áåçûìÿííûé_ãðàäèåíò_3-2);}.cls-14{fill:#212b53;}.cls-15{fill:#00666a;}.cls-16{fill:url(#Áåçûìÿííûé_ãðàäèåíò_3-3);}.cls-17{fill:url(#Áåçûìÿííûé_ãðàäèåíò_3-4);}.cls-18{fill:#93cfc7;}.cls-19{fill:url(#Áåçûìÿííûé_ãðàäèåíò_3-5);}.cls-20{fill:#f59c42;}.cls-21{fill:#e8375e;}.cls-22{fill:url(#Áåçûìÿííûé_ãðàäèåíò_3-6);}.cls-23{fill:url(#Áåçûìÿííûé_ãðàäèåíò_3-7);}.cls-24{fill:url(#Áåçûìÿííûé_ãðàäèåíò_3-8);}.cls-25{fill:url(#Áåçûìÿííûé_ãðàäèåíò_3-9);}.cls-26{fill:url(#Áåçûìÿííûé_ãðàäèåíò_3-10);}</style><linearGradient id="Áåçûìÿííûé_ãðàäèåíò_3" x1="589.72" y1="211.16" x2="632.86" y2="211.16" gradientTransform="matrix(-1, 0, 0, 1, 787.32, -40.13)" gradientUnits="userSpaceOnUse"><stop offset="0" stop-color="#e0f0eb"/><stop offset="1" stop-color="#c0e4ef"/></linearGradient><linearGradient id="Áåçûìÿííûé_ãðàäèåíò_3-2" x1="423.45" y1="206.81" x2="464.5" y2="206.81" xlink:href="#Áåçûìÿííûé_ãðàäèåíò_3"/><linearGradient id="Áåçûìÿííûé_ãðàäèåíò_3-3" x1="118.02" y1="208.33" x2="135.99" y2="208.33" gradientTransform="matrix(1, 0, 0, 1, 0, 0)" xlink:href="#Áåçûìÿííûé_ãðàäèåíò_3"/><linearGradient id="Áåçûìÿííûé_ãðàäèåíò_3-4" x1="102.81" y1="210.7" x2="121.14" y2="210.7" gradientTransform="matrix(1, 0, 0, 1, 0, 0)" xlink:href="#Áåçûìÿííûé_ãðàäèåíò_3"/><linearGradient id="Áåçûìÿííûé_ãðàäèåíò_3-5" x1="94.4" y1="213.01" x2="110.92" y2="213.01" gradientTransform="matrix(1, 0, 0, 1, 0, 0)" xlink:href="#Áåçûìÿííûé_ãðàäèåíò_3"/><linearGradient id="Áåçûìÿííûé_ãðàäèåíò_3-6" x1="839.74" y1="202.82" x2="854.83" y2="202.82" gradientTransform="matrix(-1, 0, 0, 1, 1275.42, -40.13)" xlink:href="#Áåçûìÿííûé_ãðàäèåíò_3"/><linearGradient id="Áåçûìÿííûé_ãðàäèåíò_3-7" x1="847.77" y1="213.87" x2="868.85" y2="213.87" gradientTransform="matrix(-1, 0, 0, 1, 1369.82, 0)" xlink:href="#Áåçûìÿííûé_ãðàäèåíò_3"/><linearGradient id="Áåçûìÿííûé_ãðàäèåíò_3-8" x1="832.39" y1="218.62" x2="878.69" y2="190" gradientTransform="matrix(-1, 0, 0, 1, 1369.82, 0)" xlink:href="#Áåçûìÿííûé_ãðàäèåíò_3"/><linearGradient id="Áåçûìÿííûé_ãðàäèåíò_3-9" x1="829.12" y1="213.33" x2="875.42" y2="184.71" gradientTransform="matrix(-1, 0, 0, 1, 1369.82, 0)" xlink:href="#Áåçûìÿííûé_ãðàäèåíò_3"/><linearGradient id="Áåçûìÿííûé_ãðàäèåíò_3-10" x1="703.21" y1="217.67" x2="704.53" y2="217.67" gradientTransform="matrix(-1, 0, 0, 1, 1276.14, 0)" xlink:href="#Áåçûìÿííûé_ãðàäèåíò_3"/></defs><title>shutterstock_1079765807 [Converted] copy</title><path class="cls-1" d="M397.59,147.22c-.44-1.58-5.64-5.13-12.1-7.87a60.78,60.78,0,0,0-.38-17.83c5.74-2.18,11.57-5.07,12.24-8,1.35-6-7-20.57-9.27-21.85-1.46-.82-7.84.4-14.48,3.13a61.37,61.37,0,0,0-12.54-12.44c2.53-5.61,4.62-11.8,3-14.38-3.3-5.21-19.49-9.6-22-8.9-1.57.44-5.1,5.61-7.85,12a61,61,0,0,0-18.09-.18c-2.15-5.53-4.94-11-7.8-11.62-6-1.35-20.57,7-21.85,9.27-.77,1.36.24,7,2.58,13.09a61.28,61.28,0,0,0-13.58,13.19c-5.12-2.17-10.37-3.72-12.69-2.25-5.21,3.3-9.6,19.49-8.9,22,.4,1.42,4.61,4.41,10.13,7a61,61,0,0,0-.1,19.68c-4.85,2-9.22,4.52-9.79,7.06-1.35,6,7,20.57,9.27,21.86,1.25.7,6.15-.11,11.72-2.08A60.94,60.94,0,0,0,289.31,182c-2,4.85-3.3,9.68-1.91,11.87,3.3,5.21,19.49,9.61,22,8.9,1.42-.4,4.43-4.63,7-10.17a61.05,61.05,0,0,0,19.38-.52c2.08,5.11,4.68,9.85,7.34,10.45,6,1.35,20.57-7,21.85-9.27.77-1.36-.25-7-2.61-13.18a61.14,61.14,0,0,0,12.71-13.49c5.39,2.37,11.13,4.2,13.59,2.64C393.9,165.93,398.3,149.74,397.59,147.22Zm-83.33,9.95A27.46,27.46,0,1,1,350,142,27.45,27.45,0,0,1,314.26,157.17Z" transform="translate(-94.4 -40.13)"/><path class="cls-2" d="M322.2,170.53a39.45,39.45,0,0,1-33.46-23.92,39.37,39.37,0,1,1,72.74-.61h0a39.42,39.42,0,0,1-39.28,24.53Zm5.49-77.45a38.25,38.25,0,1,0,32.73,52.49h0a38.21,38.21,0,0,0-21.1-49.77A38.39,38.39,0,0,0,327.69,93.08Z" transform="translate(-94.4 -40.13)"/><path class="cls-2" d="M380.63,141.55l-.67-.38A56,56,0,0,1,269.44,141h0l-.75-.16a56.74,56.74,0,0,0,108.64,12.36A56,56,0,0,0,380.63,141.55Z" transform="translate(-94.4 -40.13)"/><path class="cls-2" d="M309.56,78a55.75,55.75,0,0,1,36.16,2c.23.1.46.21.69.3,0-.25,0-.51,0-.77l-.47-.2a56.41,56.41,0,0,0-36.48-2C309.53,77.52,309.55,77.76,309.56,78Z" transform="translate(-94.4 -40.13)"/><path class="cls-3" d="M463.11,119.13c-1,.2-3.53,3.35-5.58,7.34a39,39,0,0,0-11.38-.59c-1.12-3.76-2.69-7.61-4.55-8.17-3.77-1.15-13.44,3.49-14.36,4.88-.59.89-.11,5,1.32,9.38a39.14,39.14,0,0,0-8.52,7.41c-3.45-1.87-7.3-3.5-9-2.58-3.47,1.86-7,12-6.7,13.61.21,1,3.33,3.52,7.31,5.57a38.8,38.8,0,0,0-1,11.52c-3.63,1.11-7.23,2.64-7.77,4.43-1.14,3.77,3.5,13.44,4.89,14.36.83.55,4.45.17,8.46-1a39.23,39.23,0,0,0,7.77,9.27c-1.62,3.16-2.85,6.43-2,8,1.86,3.47,12,7,13.61,6.7.92-.19,3-2.73,4.93-6.13a39.19,39.19,0,0,0,12.54,1c1.07,3.19,2.45,6.08,4,6.57,3.77,1.14,13.44-3.5,14.36-4.89.51-.77.23-3.92-.77-7.57a39.17,39.17,0,0,0,9.52-8.41c3,1.49,6,2.55,7.47,1.77,3.48-1.86,7-12,6.7-13.61-.19-.92-2.74-3-6.15-4.95a39.13,39.13,0,0,0,.57-12.38c3.35-1.08,6.5-2.52,7-4.18,1.14-3.78-3.49-13.44-4.89-14.37-.83-.55-4.49-.16-8.52,1.05a39.09,39.09,0,0,0-8-8.72c1.76-3.33,3.19-6.91,2.32-8.54C474.86,122.35,464.75,118.79,463.11,119.13Zm2.46,53.57a17.55,17.55,0,1,1-8-23.49A17.55,17.55,0,0,1,465.57,172.7Z" transform="translate(-94.4 -40.13)"/><path class="cls-2" d="M474.45,168.26a25.48,25.48,0,0,1-2.34,7.51,25.15,25.15,0,1,1-11.46-33.69h0a25.19,25.19,0,0,1,13.8,26.18Zm-49.1-7.11a24.44,24.44,0,1,0,35-18.41h0a24.45,24.45,0,0,0-35,18.41Z" transform="translate(-94.4 -40.13)"/><path class="cls-2" d="M458.71,129.67c-.09.14-.18.28-.28.41a35.79,35.79,0,0,1-5.27,70.43h0c0,.16-.09.32-.14.48a36.26,36.26,0,0,0,5.69-71.32Z" transform="translate(-94.4 -40.13)"/><path class="cls-2" d="M414.89,172a35.65,35.65,0,0,1,2.94-22.95l.23-.43-.49-.07c-.05.1-.11.19-.15.29a36.11,36.11,0,0,0-3,23.16Z" transform="translate(-94.4 -40.13)"/><polygon class="cls-4" points="12.71 94.43 211.46 94.43 261.5 237.24 58.57 237.24 12.71 94.43"/><polygon class="cls-5" points="21.18 99.29 206.4 99.29 253.03 232.38 63.92 232.38 21.18 99.29"/><rect class="cls-6" x="55.99" y="231.17" width="263.19" height="12.98" rx="4.93"/><path class="cls-7" d="M59,231.17h88.81a5.3,5.3,0,0,1,5.3,5.3v2.39a5.3,5.3,0,0,1-5.3,5.3H59a3,3,0,0,1-3-3v-7a3,3,0,0,1,3-3Z"/><path class="cls-7" d="M337.1,277.6a1.9,1.9,0,1,1-1.89-1.89A1.89,1.89,0,0,1,337.1,277.6Z" transform="translate(-94.4 -40.13)"/><path class="cls-8" d="M325.73,277.6a1.9,1.9,0,1,1-1.9-1.89A1.89,1.89,0,0,1,325.73,277.6Z" transform="translate(-94.4 -40.13)"/><path class="cls-6" d="M219.19,279.65H207.88a2.23,2.23,0,0,1-2.23-2.23h0a2.24,2.24,0,0,1,2.23-2.24h11.31a2.24,2.24,0,0,1,2.23,2.24h0A2.23,2.23,0,0,1,219.19,279.65Z" transform="translate(-94.4 -40.13)"/><path class="cls-8" d="M198.92,279.65H187.61a2.24,2.24,0,0,1-2.23-2.23h0a2.25,2.25,0,0,1,2.23-2.24h11.31a2.25,2.25,0,0,1,2.24,2.24h0A2.24,2.24,0,0,1,198.92,279.65Z" transform="translate(-94.4 -40.13)"/><path class="cls-4" d="M534.78,101.72c8.46,0,15.32,7.26,15.32,16.2V269.09c0,9-6.86,16.2-15.32,16.2h-54c-8.46,0-15.32-7.25-15.32-16.2V117.92c0-8.94,6.86-16.2,15.32-16.2Z" transform="translate(-94.4 -40.13)"/><path class="cls-4" d="M525.6,101.72c8.47,0,15.32,7.26,15.32,16.2V269.09c0,9-6.85,16.2-15.32,16.2h-54c-8.46,0-15.32-7.25-15.32-16.2V117.92c0-8.94,6.86-16.2,15.32-16.2Z" transform="translate(-94.4 -40.13)"/><path class="cls-2" d="M527.34,104.61c8,0,11.25,6.86,11.25,15.31V267.09c0,8.46-3.25,15.31-11.25,15.31H470.93c-8,0-12.32-5.77-12.32-14.23V118.84c0-8.46,4.33-14.23,12.32-14.23Z" transform="translate(-94.4 -40.13)"/><rect class="cls-5" x="367.34" y="86.52" width="73.68" height="132.81"/><path class="cls-9" d="M513.16,116.85c.17,0,.31-.27.31-.61h0c0-.33-.14-.61-.31-.61H484.45c-.17,0-.31.28-.31.61h0c0,.34.14.61.31.61Z" transform="translate(-94.4 -40.13)"/><path class="cls-4" d="M499.17,276.68a5.81,5.81,0,1,0-5.81-5.81A5.82,5.82,0,0,0,499.17,276.68Z" transform="translate(-94.4 -40.13)"/><path class="cls-10" d="M284.38,235.51,345.8,181.3H452.5v47.75l-13.34.86L428,234.65l-62.82,37.42L348.85,282c-2.13,1.86-5.77.65-7.46-1.28l-1.66-1.91a4.54,4.54,0,0,1,.48-6.6l14.1-12.29-1.8-2-18.87,16.44a6.45,6.45,0,0,1-9.41-.6L321.86,271a6.47,6.47,0,0,1,.69-9.41l18.73-16.32-1.58-1.78L315.06,265a7.08,7.08,0,0,1-10.31-.66l-2.6-3a7.08,7.08,0,0,1,.76-10.31L327.4,229.7l-1.92-2.14-27.29,23.79c-3.45,3-8.15,2.19-11.15-1.25l-2.94-3.38C281.1,243.28,280.94,238.51,284.38,235.51Z" transform="translate(-94.4 -40.13)"/><path class="cls-11" d="M267.5,239l2.15-52.49h25.81l43.07-14.63s53.78-.5,54.76,0a71.28,71.28,0,0,1,.7,7.54l-.91,4.47A14.44,14.44,0,0,1,379.39,192l-32.21-.42c-1.92,0-9.69-.71-11.09-1.82L281.82,239Z" transform="translate(-94.4 -40.13)"/><path class="cls-11" d="M382.8,266.54c2,2.9,6.35,3.4,9.65,1.09h0c3.31-2.3,4.35-6.53,2.33-9.44l-7.16-10.27c-2-2.91-6-2.86-9.28-.55h0c-3.31,2.3-4.72,6-2.7,8.9Z" transform="translate(-94.4 -40.13)"/><path class="cls-11" d="M396.91,256.16a7.49,7.49,0,0,0,10.36,2.1h0a7.48,7.48,0,0,0,1.62-10.45l-8.52-12.23c-2.42-3.47-6.61-3.77-9.92-1.47h0c-3.31,2.31-4.48,6.34-2.06,9.81Z" transform="translate(-94.4 -40.13)"/><path class="cls-11" d="M412.1,247.16c2.15,2.83,6.49,3.14,9.7.7h0c3.21-2.45,4.07-6.71,1.92-9.53l-7.58-10c-2.15-2.83-6.09-2.61-9.3-.17h0c-3.21,2.44-4.46,6.18-2.32,9Z" transform="translate(-94.4 -40.13)"/><path class="cls-11" d="M369.55,274.94c1.67,2.4,5.24,2.8,8,.9h0c2.73-1.9,3.59-5.39,1.92-7.79l-5.91-8.48c-1.67-2.4-4.93-2.36-7.66-.46h0c-2.73,1.9-3.9,4.95-2.23,7.35Z" transform="translate(-94.4 -40.13)"/><path class="cls-4" d="M158.49,139l-43.91-.62,5.34,25.88a28.93,28.93,0,0,1,9.37,8,23.12,23.12,0,0,0,2,2.34,50.26,50.26,0,0,1,6.74,10.2,31.47,31.47,0,0,1,1.91,5.63,28.34,28.34,0,0,1,1.62,5.74c0,.44.09.88.13,1.32L181,208.67l91,35.19,19-58.55Z" transform="translate(-94.4 -40.13)"/><polygon class="cls-9" points="27.64 119.41 39.11 155.12 177.53 204.06 186.94 175.11 27.64 119.41"/><polygon class="cls-12" points="174.42 137.29 154.46 197.56 177.63 204.76 197.6 144.49 174.42 137.29"/><path class="cls-5" d="M265.4,226.61a3.86,3.86,0,0,0-4.87,2.48h0A3.86,3.86,0,0,0,263,234h0a3.86,3.86,0,0,0,4.87-2.48h0a3.86,3.86,0,0,0-2.48-4.87Z" transform="translate(-94.4 -40.13)"/><polygon class="cls-1" points="441.6 101.31 322.7 140.83 341.73 199.37 433.69 169.47 441.6 155.59 441.6 101.31"/><path class="cls-6" d="M536,176.18c-30,9.12-109.17,34.72-109.17,34.72l9.41,28.94L536,207.4Z" transform="translate(-94.4 -40.13)"/><polygon class="cls-13" points="344.95 132.94 363.87 193.22 341.73 200.41 322.81 140.14 344.95 132.94"/><path class="cls-14" d="M119.56,297.1s.88,1.22,5,2.28c.92.23,1.9.39,1.9,1.9H122.4l-4.19-.73v.73H116s-.63-3.7.69-4.18Z" transform="translate(-94.4 -40.13)"/><path class="cls-10" d="M119.78,294.45l-.22,2.65h0a2.55,2.55,0,0,1-2.77.1l-.15-.1v-2.65Z" transform="translate(-94.4 -40.13)"/><path class="cls-14" d="M98.56,297.63s.88,1.22,5,2.28c.91.23,1.9.39,1.9,1.9h-4.1l-4.18-.73v.73H95s-.63-3.7.69-4.18Z" transform="translate(-94.4 -40.13)"/><path class="cls-10" d="M98.78,295l-.22,2.65h0a2.57,2.57,0,0,1-2.77.1l-.15-.1V295Z" transform="translate(-94.4 -40.13)"/><path class="cls-15" d="M121.45,229.17l-1,66.72h-4.86s-7.4-53.87-5.82-66.72S121.45,229.17,121.45,229.17Z" transform="translate(-94.4 -40.13)"/><path class="cls-9" d="M116.31,229.15s-1.69,20.5-5.58,31.85-10.9,34.89-10.9,34.89h-5s8.4-49.21,6.48-66.74h15Z" transform="translate(-94.4 -40.13)"/><path class="cls-16" d="M120.69,195.19s6,14,7.51,14c1.22,0-.45-11.4-.45-11.4h5s6.31,19.55,1.3,23.12-16-10.11-16-10.11Z" transform="translate(-94.4 -40.13)"/><path class="cls-10" d="M102.83,230.93l1.81,4.49c.88,1.76,4.09,1.8,6.22,1.24a.43.43,0,0,0,.21-.72,61.82,61.82,0,0,0-5.26-5.32Z" transform="translate(-94.4 -40.13)"/><path class="cls-17" d="M115.73,192.27a5.61,5.61,0,0,1,4.82,2.68,3.79,3.79,0,0,1,.59,1.91v32.29H102.81V199s.38-6.71,6.94-6.71Z" transform="translate(-94.4 -40.13)"/><polygon class="cls-18" points="26.44 189.03 26.44 160.03 27.05 160.05 27.05 189.03 26.44 189.03"/><path class="cls-11" d="M109,186.09l2,7.36a4.64,4.64,0,0,0,3.88.77c2.21-.59,1.79-2.18,1.79-2.18l-1.25-4.72-3.5,0Z" transform="translate(-94.4 -40.13)"/><path class="cls-10" d="M116.05,188.64a2.86,2.86,0,0,0,1.53-.86c1.13-3.65-3.35-11.49-3.35-11.49l-6.78,3.17,1.27,5.71a4.91,4.91,0,0,0,2.82,3.43h0A7.87,7.87,0,0,0,116.05,188.64Z" transform="translate(-94.4 -40.13)"/><path class="cls-14" d="M110.84,178.72a15.88,15.88,0,0,0,4.85-1.29c2.37-1.1,0-3.42,0-3.42a10.1,10.1,0,0,1-5,1.71c-2.29.26-3,0-4.21,1.12-1.65,1.54-.27,4.89-.27,4.89l3,7.08.4-.11s-1.07-4.4-1.46-5.89c.23-.79.68-.9,1.08-.83a1.16,1.16,0,0,1,.85.86l2,7.63s5.42.81,6.56.1-1.19-6.15-1.19-6.15a2.35,2.35,0,0,0-2.37,1.29c-.77,1.52-2.44.6-2.44.6Z" transform="translate(-94.4 -40.13)"/><path class="cls-10" d="M131.8,197.76l-.18-1a8,8,0,0,0-4.48-5.48H125l.66,4.55,3,1.9Z" transform="translate(-94.4 -40.13)"/><path class="cls-10" d="M108.61,182a1.29,1.29,0,0,1,1.48.86,1.12,1.12,0,0,1-.45,1.55,1.29,1.29,0,0,1-1.49-.86A1.11,1.11,0,0,1,108.61,182Z" transform="translate(-94.4 -40.13)"/><path class="cls-10" d="M126.55,195.35l4.15,2.41s-2.61,0-2.65,0l-4.39-3.68s.32-.64,1.31-.1A5,5,0,0,1,126.55,195.35Z" transform="translate(-94.4 -40.13)"/><path class="cls-19" d="M104.76,194.27S94.4,205.79,94.4,212.69s8.41,19.06,8.41,19.06l4.16-1.21s-3.75-15.06-3.75-19.06,7.7-9.88,7.7-9.88" transform="translate(-94.4 -40.13)"/><path class="cls-18" d="M103.52,211.48c0,3.45,3,16.05,3.77,19l-.62.15c-.88-3.63-3.76-15.75-3.76-19.14,0-4.11,7.51-9.87,7.83-10.12l.36.49C111,201.9,103.52,207.67,103.52,211.48Z" transform="translate(-94.4 -40.13)"/><path class="cls-15" d="M123.83,188.47a11,11,0,0,0,2.89,7.75,1.17,1.17,0,0,0,.82.33,3,3,0,0,0,1.39-.42,1.32,1.32,0,0,0,.79-.72.58.58,0,0,0-.14-.59c-.65-.76-2.72-3.38-2.26-6A4.54,4.54,0,0,0,123.83,188.47Z" transform="translate(-94.4 -40.13)"/><path class="cls-9" d="M129.29,195.93a.85.85,0,0,0,.43-.52.58.58,0,0,0-.14-.59c-.65-.76-2.72-3.38-2.26-6a3.78,3.78,0,0,0-1.71-.54C125.87,191.06,126.69,192.83,129.29,195.93Z" transform="translate(-94.4 -40.13)"/><path class="cls-15" d="M126.73,191.82c.21.61.58,1.05.82,1s.27-.65.06-1.27-.57-1.05-.82-1S126.52,191.2,126.73,191.82Z" transform="translate(-94.4 -40.13)"/><polygon class="cls-20" points="32.35 150.44 32.6 150.35 32.6 150.48 32.43 150.57 32.35 150.44"/><polygon class="cls-21" points="33.09 152.66 33.4 152.56 33.04 152.55 33.09 152.66"/><path class="cls-4" d="M126.94,191.75c.21.61.58,1.05.82,1s.27-.65.06-1.27-.58-1-.82-1S126.73,191.13,126.94,191.75Z" transform="translate(-94.4 -40.13)"/><path class="cls-15" d="M122.26,184.88l-.49.06a1.68,1.68,0,0,0-1.49,1.83l.16,1.28a1.66,1.66,0,0,0,1.89,1.4l.49-.06Z" transform="translate(-94.4 -40.13)"/><path class="cls-14" d="M137.32,184.28c.44,3.5,0,6.44-1,6.57s-2.16-2.62-2.59-6.12,0-6.43,1-6.56S136.88,180.79,137.32,184.28Z" transform="translate(-94.4 -40.13)"/><polygon class="cls-2" points="38.96 142.28 40.49 143.02 40.75 145.07 39.45 146.58 38.61 143.98 38.96 142.28"/><path class="cls-5" d="M133.73,184.73c-.37-2.94-.11-5.47.57-6.28h0A29.17,29.17,0,0,1,122,185l.56,4.48s9.37-1.72,13.29,1.25h0C135,190.07,134.09,187.68,133.73,184.73Z" transform="translate(-94.4 -40.13)"/><path class="cls-1" d="M135.21,184.15c.07.57,0,1-.06,1.06s-.26-.44-.33-1,0-1,.07-1S135.14,183.58,135.21,184.15Z" transform="translate(-94.4 -40.13)"/><path class="cls-10" d="M129.49,194.45a4.74,4.74,0,0,1-2.31.38c-1.21,0-1.75-1.48-2-2.29-.07-.28-.14-.69.22-.87l1.94-.27Z" transform="translate(-94.4 -40.13)"/><polygon class="cls-11" points="420.05 152.04 419.61 157.64 414.12 157.87 416.33 149.2 420.05 152.04"/><path class="cls-10" d="M516.79,193.2a3,3,0,0,0,1.68-.4c2-2.92-.28-10.79-.28-10.79l-3.2-1.35-4.08,2.54-.23,5.28a4.24,4.24,0,0,0,1.82,3.63h0A8.31,8.31,0,0,0,516.79,193.2Z" transform="translate(-94.4 -40.13)"/><path class="cls-14" d="M511.55,186.19c.22-.89.11-2.93,1-2.78.66.1,2.91.2,3.67.2,1.81,0,5-.71,5-3.46a3.55,3.55,0,0,0-4.8-3c-2,.7-4.63,2.23-5.69,2-1.77-.36-3.54.68-3.51,2.19a14.87,14.87,0,0,0,1.65,5.56,8.54,8.54,0,0,0,1.81,2.37h0Z" transform="translate(-94.4 -40.13)"/><path class="cls-10" d="M509.72,186.39a1.35,1.35,0,0,1,1.68.15c.53.44.63,1.08.23,1.44a1.36,1.36,0,0,1-1.69-.15C509.41,187.39,509.31,186.75,509.72,186.39Z" transform="translate(-94.4 -40.13)"/><path class="cls-10" d="M529.88,196.51a5.53,5.53,0,0,1,2-2.32c1.37-1.06,4.88-2.43,3.36-3.48-1.88.15-4.11.1-4.11.1-1.12.2-2.45,1.6-3.1,2.64l-1.64,3.41s.75,1.67.77,1.76l.79-.15A8.93,8.93,0,0,1,529.88,196.51Z" transform="translate(-94.4 -40.13)"/><path class="cls-10" d="M530,195.55a2.67,2.67,0,0,1,0-.28,5.83,5.83,0,0,1-.73.1c-.77.48-1.56.93-2.34,1.39.33.41.8,1,.82,1l5.71-2s.06-.78-1.2-.75A6,6,0,0,0,530,195.55Z" transform="translate(-94.4 -40.13)"/><polygon class="cls-22" points="426.87 167.96 435.68 159.78 432.63 155.23 420.59 160.92 425.83 170.14 426.87 167.96"/><path class="cls-23" d="M511.48,194.44c-12.55-2.61-10.37,39-10.37,39H521s.29-7.24,1-16.42C522.61,209.21,518.24,200.42,511.48,194.44Z" transform="translate(-94.4 -40.13)"/><path class="cls-14" d="M518,302.21a15.48,15.48,0,0,0,6.41,3c1,.25,2-.08,2,1.54h-5.42l-4.5-.78v.78h-2.43s-.68-4,.74-4.49Z" transform="translate(-94.4 -40.13)"/><path class="cls-10" d="M517.75,299.35l.28,2.86h0a2.73,2.73,0,0,1-3,.1l-.17-.1-.51-2.86Z" transform="translate(-94.4 -40.13)"/><path class="cls-10" d="M546.19,207.46a5.36,5.36,0,0,0,2.7-1.43c1.35-1.11,3.47-4.22,4.16-2.5-.57,1.8-1,4-1,4-.45,1.05-2.11,2-3.27,2.44l-3.69.83s-1.46-1.11-1.54-1.15l.32-.73A8.94,8.94,0,0,0,546.19,207.46Z" transform="translate(-94.4 -40.13)"/><path class="cls-10" d="M547.15,207.6a1.23,1.23,0,0,0,.28,0q-.15.34-.27.69c-.63.65-1.25,1.32-1.87,2-.33-.41-.78-1-.82-1l3.25-5.11s.77.11.47,1.34A6.13,6.13,0,0,1,547.15,207.6Z" transform="translate(-94.4 -40.13)"/><path class="cls-14" d="M498.91,298.21a15.65,15.65,0,0,0,6.42,3c1,.25,2-.09,2,1.53H502l-4.5-.78v.78H495s-.68-4,.74-4.49Z" transform="translate(-94.4 -40.13)"/><path class="cls-10" d="M498.63,295.36l.28,2.85h0a2.73,2.73,0,0,1-3,.1l-.17-.1-.5-2.85Z" transform="translate(-94.4 -40.13)"/><path class="cls-14" d="M501.11,233.42s1.59,8.42.17,25.85a32,32,0,0,1-2.07,9c-3.83,9.8-4.35,27.9-4.35,27.9h4.37l15.43-44.11Z" transform="translate(-94.4 -40.13)"/><path class="cls-24" d="M508.52,208.16s3.43,12.8,12.75,14,24.63-10.61,24.63-10.61l-1.68-3.37-16.17,4.53a5.48,5.48,0,0,1-6.29-2.66l-4.87-9Z" transform="translate(-94.4 -40.13)"/><path class="cls-5" d="M521,233.42l-2.89,66.7h-3.91s-4.39-15.55-4.06-27.81a28.43,28.43,0,0,0-2-11.36,104.87,104.87,0,0,1-7-27.53Z" transform="translate(-94.4 -40.13)"/><polygon class="cls-2" points="460.76 160.92 446.7 171.5 430.62 158.94 443.76 149.2 460.76 160.92"/><path class="cls-25" d="M536.48,214.28a10.14,10.14,0,0,0-.86-3.71l8.6-2.41,1.68,3.37a81.9,81.9,0,0,1-9.82,6.29A12.58,12.58,0,0,0,536.48,214.28Z" transform="translate(-94.4 -40.13)"/><path class="cls-4" d="M508.76,208.1c0,.12,3.5,12.64,12.54,13.79,8.42,1.06,22.07-8.79,24.16-10.35l.33.39c-2,1.52-14.4,10.54-23.14,10.54a11,11,0,0,1-1.42-.08c-9.37-1.19-12.92-14-13-14.16Z" transform="translate(-94.4 -40.13)"/><path class="cls-10" d="M548.59,210l-3,.68a10.09,10.09,0,0,0-1.1-2,9.18,9.18,0,0,0,1.73-1.16,5.39,5.39,0,0,0,2.7-1.43,11.9,11.9,0,0,0-.34,3.34C548.55,209.58,548.57,209.78,548.59,210Z" transform="translate(-94.4 -40.13)"/><path class="cls-10" d="M544.66,208.93l3.06-4.8s.77.11.47,1.34a6.13,6.13,0,0,1-1,2.13,1.23,1.23,0,0,0,.28,0q-.15.34-.27.69c-.61.62-1.2,1.27-1.8,1.9A10.47,10.47,0,0,0,544.66,208.93Z" transform="translate(-94.4 -40.13)"/><path class="cls-10" d="M530.85,193.76H531a4.41,4.41,0,0,0-1.19,1.61,9.36,9.36,0,0,0-1,.88,9.09,9.09,0,0,0-.15-.91A10.92,10.92,0,0,0,530.85,193.76Z" transform="translate(-94.4 -40.13)"/><path class="cls-10" d="M530.3,194.23a6.17,6.17,0,0,1,1.86-.36c1.26,0,1.2.76,1.2.76l-4.6,1.63a8.83,8.83,0,0,0-.15-.92A10.71,10.71,0,0,0,530.3,194.23Z" transform="translate(-94.4 -40.13)"/><polygon class="cls-2" points="420.05 157.28 420.05 154.53 415.46 152.62 413.79 154.74 420.05 157.28"/><polygon class="cls-10" points="481.8 163.21 476.3 173.59 482.37 173.3 482.79 162.88 481.8 163.21"/><polygon class="cls-2" points="490.45 158.62 485.37 158.61 483.26 191.5 492.37 191.5 490.45 158.62"/><path class="cls-5" d="M594.19,295.29a2.67,2.67,0,0,1,1,2.25c-.23,1.26-.56,4.21-.56,4.21h-1.29l0-2.75c0-.18-2.77,2.75-3.24,2.75h-6.84s-.46-1.86,3.56-2.46S594.19,295.29,594.19,295.29Z" transform="translate(-94.4 -40.13)"/><path class="cls-10" d="M591.23,294l-.93,2.42a3.12,3.12,0,0,1-1.26,1.6,12.26,12.26,0,0,1-3.2,1.45c1.86,1.59,4.82-.07,6.51-1.24a4.16,4.16,0,0,0,1.66-2.4l.38-1.83Z" transform="translate(-94.4 -40.13)"/><path class="cls-5" d="M581.16,295.29a2.67,2.67,0,0,1,1,2.25c-.24,1.26-.56,4.21-.56,4.21h-1.29l0-2.75c0-.18-2.78,2.75-3.25,2.75h-6.84s-.45-1.86,3.56-2.46S581.16,295.29,581.16,295.29Z" transform="translate(-94.4 -40.13)"/><path class="cls-10" d="M578.19,294l-.92,2.42a3.14,3.14,0,0,1-1.27,1.6,12,12,0,0,1-3.19,1.45c1.86,1.59,4.82-.07,6.51-1.24a4.15,4.15,0,0,0,1.65-2.4l.39-1.83Z" transform="translate(-94.4 -40.13)"/><path class="cls-9" d="M588.75,231.63s.86,4.91-4.06,29.07c4,12.59-2.39,33.66-2.39,33.66h-4.65l-3.16-62.73Z" transform="translate(-94.4 -40.13)"/><path class="cls-7" d="M580.32,198.75l-1.65,39.9-5.47-2.34a58.49,58.49,0,0,0,2.23-17.9c.84-7.52-3.43-3.56,1.8-18C579.18,198.74,580.32,198.75,580.32,198.75Z" transform="translate(-94.4 -40.13)"/><path class="cls-11" d="M579.61,194.63l.64,3.36a2.14,2.14,0,0,0,3.24,1.42l2.24-1.41-4-9.06Z" transform="translate(-94.4 -40.13)"/><path class="cls-4" d="M593.22,231.63s6.09,4.91,1.17,29.07c4,12.59.47,33.66.47,33.66h-4.17L579,231.63Z" transform="translate(-94.4 -40.13)"/><path class="cls-7" d="M584.85,195.37s5.14,2.89,6.73,5.46,2,8,2.2,13c.2,6.83,3.5,24.79,3.5,24.79H583.51l-.34-39.09Z" transform="translate(-94.4 -40.13)"/><path class="cls-14" d="M574.71,184.54c3.12-.79,6.11,2.4,6.11,2.4l2.35,12.62,3.6-5.55s.21-7.55-3.28-12.55c-2.49-3-7.28-2.15-9.7.79a7.45,7.45,0,0,0-1.31,5.23c.15,2.44.85,16.45.85,16.45l7.13-5.29a33.28,33.28,0,0,0-.85-4C578.43,190.17,572.62,185.07,574.71,184.54Z" transform="translate(-94.4 -40.13)"/><path class="cls-10" d="M581.76,186.75a1.12,1.12,0,0,0-1.33.69,1,1,0,0,0,.33,1.37,1.12,1.12,0,0,0,1.33-.69A1,1,0,0,0,581.76,186.75Z" transform="translate(-94.4 -40.13)"/><path class="cls-10" d="M578.41,195.22a2.54,2.54,0,0,1-1.52.2c-2.71-2-3.69-9.81-3.69-9.81l2.15-2.28,4.27.94,2.11,4.67a4.31,4.31,0,0,1-.18,3.88h0A6.89,6.89,0,0,1,578.41,195.22Z" transform="translate(-94.4 -40.13)"/><path class="cls-14" d="M574,184.37c.22,2.38,6.82,2.57,6.82,2.57l.35-3.21-3.85-2.12-3.05,1.83A2,2,0,0,0,574,184.37Z" transform="translate(-94.4 -40.13)"/><path class="cls-14" d="M574.14,184.83a4.55,4.55,0,0,1-.67,2.43l-.53-.95,0-.82.52-.65S573.92,184,574.14,184.83Z" transform="translate(-94.4 -40.13)"/><path class="cls-10" d="M590.18,200.83c6.66.78,3.52,18,2.08,25a3,3,0,0,1-3.81,2.26c-5.8-1.83-14.27-9.42-14.27-9.42l1.34-1.69,11.25,2.63S582.46,199.93,590.18,200.83Z" transform="translate(-94.4 -40.13)"/><path class="cls-2" d="M576.85,213,579,226.44a.64.64,0,0,1-.64.74h-8.61a.64.64,0,0,1-.64-.54L567,213.18a.65.65,0,0,1,.63-.75h8.58A.64.64,0,0,1,576.85,213Z" transform="translate(-94.4 -40.13)"/><path class="cls-10" d="M567.29,218.94a5.91,5.91,0,0,1,.15-1.75c.2-1.28.15-3.27,1.45-2.28a6.52,6.52,0,0,1,1.37,3.18,3.8,3.8,0,0,1-.82,2.85l-.89,1.95A5.61,5.61,0,0,1,567.29,218.94Z" transform="translate(-94.4 -40.13)"/><path class="cls-26" d="M572.92,217.67a.66.66,0,1,1-.65-.66A.65.65,0,0,1,572.92,217.67Z" transform="translate(-94.4 -40.13)"/><path class="cls-10" d="M449,147.06l-.56,3.34h0a3.22,3.22,0,0,0,3.49.12l.19-.12.83-3.34Z" transform="translate(-94.4 -40.13)"/><path class="cls-15" d="M475.78,69.71c-3,9.8-12.94,24.85-12.94,24.85l7.87-3.22,5.57-12.86S478.75,59.91,475.78,69.71Z" transform="translate(-94.4 -40.13)"/><path class="cls-14" d="M454.38,109.07l-6.21,38.29h5.52s12.4-34.45,13.7-44.58c0-5.73-12.53,0-12.53,0Z" transform="translate(-94.4 -40.13)"/><polygon class="cls-11" points="380.55 14.11 382.6 19.44 387.06 16.21 384.05 9.93 380.55 14.11"/><path class="cls-10" d="M473.26,55.12a3,3,0,0,1-1.74,0c-2.58-2.47-1.95-10.71-1.95-10.71l2.89-2L477,44l1.32,5.16a4.33,4.33,0,0,1-1.05,4h0A8.38,8.38,0,0,1,473.26,55.12Z" transform="translate(-94.4 -40.13)"/><path class="cls-14" d="M476.21,45.77a1.78,1.78,0,0,0-2.24-.88,14.83,14.83,0,0,1-2.13.65c-1.79.37-5.12.34-5.69-2.38s3-2.48,3-2.48l4.69.32a8.57,8.57,0,0,0,4.05-.74,1.9,1.9,0,0,1,2.37,1.26c.53,1.53,0,4.15-.48,5.83a8.59,8.59,0,0,1-1.3,2.71h0Z" transform="translate(-94.4 -40.13)"/><path class="cls-10" d="M478.84,46.94a1.36,1.36,0,0,0-1.63.5c-.43.54-.39,1.2.08,1.46a1.37,1.37,0,0,0,1.63-.49C479.35,47.86,479.32,47.21,478.84,46.94Z" transform="translate(-94.4 -40.13)"/><path class="cls-14" d="M448.32,150.05s0,3.55-7.15,5.69c-1.47.43-1,.87-1.27,1.48h8.22l3.21-3.61,1,.86,2.31-2.28s-.4-3.3-2.16-3.33C451,149.36,448.32,150.05,448.32,150.05Z" transform="translate(-94.4 -40.13)"/><path class="cls-10" d="M468.61,146l1.33,3.08h0a3.24,3.24,0,0,0,3.34-1l.15-.17-1.08-3.17Z" transform="translate(-94.4 -40.13)"/><path class="cls-9" d="M476,58.08s-.56-.88,4.48-3.49c7.62,7.61,10.11,36.75,10.11,36.75h-19.9C470,74.71,476,58.08,476,58.08Z" transform="translate(-94.4 -40.13)"/><path class="cls-10" d="M456.36,90.55a.89.89,0,0,1,.41-1L460,87.71a3.78,3.78,0,0,1,2.65-.43l3.52.14.46.56.73,3.11-1.12-.28-2.23.06s-4.22,3.91-6.3.51c-.09,3.62-1.15,3.34-1.15,3.34Z" transform="translate(-94.4 -40.13)"/><path class="cls-5" d="M490.61,91.34l.3,2.47,0,.1a9.74,9.74,0,0,1-7.14,10.36,87.82,87.82,0,0,1-20.49,3.63c7.5,9.63,9.58,36.67,9.58,36.67L468,146.33l-18.67-44.48a4.91,4.91,0,0,1,3.51-6.71l17.83-3.8Z" transform="translate(-94.4 -40.13)"/><path class="cls-9" d="M478.17,67.6a39.82,39.82,0,0,1,5.89,6.87,2.62,2.62,0,0,1-.23,3.08c-4.15,4.77-18.92,9.36-18.92,9.36l1,5.38s21-4.12,28.38-11.56c7.61-7.64-12.08-23.6-12.08-23.6" transform="translate(-94.4 -40.13)"/><path class="cls-4" d="M483.81,74.63a2.29,2.29,0,0,1-.21,2.73c-1.89,2.17-6.93,4.5-11.34,6.18,0,.28,0,.29,0,.62,4.63-1.74,9.72-4,11.79-6.42a2.87,2.87,0,0,0,.26-3.43,40.48,40.48,0,0,0-5.94-6.93l-.4.44A39.61,39.61,0,0,1,483.81,74.63Z" transform="translate(-94.4 -40.13)"/><path class="cls-4" d="M489.88,83.72c-8.05,4.34-19.84,7.45-24.05,8.33a4.9,4.9,0,0,0,.12.57c4.05-.82,15.74-3.82,24-8.22A4.87,4.87,0,0,0,489.88,83.72Z" transform="translate(-94.4 -40.13)"/><polygon class="cls-9" points="354.13 56.91 347.93 34.74 349.07 34.42 354.98 55.57 372.79 52.47 372.99 53.64 354.13 56.91"/><path class="cls-14" d="M469.65,148.41s.28,3.59-6.86,5.72c-1.47.44-1,.87-1.27,1.49h8.22L473,152l1,.86,2.32-2.28s-1.09-3.3-2.85-3.32C472,147.75,469.65,148.41,469.65,148.41Z" transform="translate(-94.4 -40.13)"/><path class="cls-5" d="M308.81,145.9l10.69-.9c1.43,0,3.05.3,3.42,1.51a7.43,7.43,0,0,1,.29,1.62c-.34.47-14.56,1.14-14.56,1.14l-.06,0C306.93,147.54,308.81,145.9,308.81,145.9Z" transform="translate(-94.4 -40.13)"/><polygon class="cls-2" points="228.81 107.99 214.25 109.14 214.43 109.69 228.87 108.5 228.81 107.99"/><polygon class="cls-2" points="218.65 105.4 219.61 105.33 219.42 106.66 218.48 106.74 218.65 105.4"/><polygon class="cls-2" points="220.71 105.23 221.67 105.16 221.48 106.49 220.55 106.57 220.71 105.23"/><path class="cls-10" d="M307.78,142.4l1,3.5h0a3.51,3.51,0,0,0,2.87-.17l.16-.09.22-3.6Z" transform="translate(-94.4 -40.13)"/><path class="cls-5" d="M305.47,148.35l10.69-.93c1.43,0,3,.29,3.42,1.5a7.11,7.11,0,0,1,.3,1.61c-.34.48-14.56,1.2-14.56,1.2l-.06,0C303.6,150,305.47,148.35,305.47,148.35Z" transform="translate(-94.4 -40.13)"/><polygon class="cls-2" points="225.48 110.4 210.93 111.59 211.1 112.15 225.54 110.91 225.48 110.4"/><polygon class="cls-2" points="215.31 107.84 216.27 107.76 216.08 109.1 215.15 109.18 215.31 107.84"/><polygon class="cls-2" points="217.37 107.66 218.33 107.59 218.14 108.92 217.21 109 217.37 107.66"/><path class="cls-10" d="M304.43,144.85l1,3.5h0a3.47,3.47,0,0,0,2.87-.18l.16-.08.21-3.61Z" transform="translate(-94.4 -40.13)"/><path class="cls-14" d="M262.38,121.13s1.7,13.52,14,14.09,26.86-13.49,26.86-13.49L308,143l4.73.1s3.08-32.39-3.54-34S278,118.16,278,118.16Z" transform="translate(-94.4 -40.13)"/><polygon class="cls-11" points="177.67 43.01 175.28 47.78 179.4 49.31 181.27 45.43 177.67 43.01"/><path class="cls-10" d="M273.19,74.54,271.5,81.1a1,1,0,0,1,.5,1.54,1.26,1.26,0,0,1,0,.51,7.78,7.78,0,0,0,5.33,3.14c4.33.49,4.33-8.17,4.33-8.17Z" transform="translate(-94.4 -40.13)"/><path class="cls-14" d="M269.62,78.75a4.11,4.11,0,0,0-.47-2.11c-1.69-2.73.83-3.54,1.71-3.78s1.28-1.79,2.59-2.28c2-.76,3.13,1,4.22,1.16s2.15-1,3.42.15.73,2.31,1.06,3,1.63-.45,2.6,1.57c1.47,3.06-3.19,2.72-3.19,2.72a8.27,8.27,0,0,1-5.45-2,1.08,1.08,0,0,0-1.31-.08c-1.08.8-2.77,6.18-2.77,6.18l-.77-1.21A3,3,0,0,1,269.62,78.75Z" transform="translate(-94.4 -40.13)"/><path class="cls-10" d="M271.91,80a1,1,0,1,0,.94-1.12A1,1,0,0,0,271.91,80Z" transform="translate(-94.4 -40.13)"/><path class="cls-5" d="M258.87,120s.31,13.63,12.52,15.45,28.1-10.68,28.1-10.68l4.66,20.89,4.8-.42s4.16-30.12-2.25-32.42-32,5.82-32,5.82Z" transform="translate(-94.4 -40.13)"/><path class="cls-9" d="M258.87,120l20.37-1.75a42.62,42.62,0,0,1-1-9.12,16.87,16.87,0,0,1,1.55-6.53c-.6-7.78-2.92-15.46-9.79-15.1C258.14,89.54,258.87,120,258.87,120Z" transform="translate(-94.4 -40.13)"/><polygon class="cls-9" points="222.74 54.88 214.56 72.26 196.9 68.99 196.64 70.39 215.38 73.86 224.03 55.48 222.74 54.88"/><path class="cls-10" d="M271.7,103.08l8-.69.27,9,14.32-3.51,3.25-1.86a3.91,3.91,0,0,1,2.78-.44l3.83.81a.94.94,0,0,1,.72.82l1.14,4.21s-1,.62-2.23-3c-1,4.06-6.61,1-6.61,1l-2,1.25s-15.76,10.14-19.41,7.85S271.7,103.08,271.7,103.08Z" transform="translate(-94.4 -40.13)"/><path class="cls-10" d="M304.91,107.18a.94.94,0,0,0-.72-.82l-3.83-.81a3.91,3.91,0,0,0-2.78.44l-3.25,1.86-.47.12.29,3.32,1-.64,2-1.25s5.65,3.1,6.61-1c1.27,3.57,2.23,3,2.23,3Z" transform="translate(-94.4 -40.13)"/></svg>